<?xml version="1.0" encoding="UTF-8"?>
<svg id="svg2" xmlns="http://www.w3.org/2000/svg" width="390.22" height="269.93" viewBox="0 0 390.22 269.93">
  <defs>
    <style>
      .cls-1 {
        fill-rule: evenodd;
      }

      .cls-1, .cls-2 {
        stroke-miterlimit: 2.13;
        stroke-width: 5px;
      }

      .cls-1, .cls-2, .cls-3 {
        stroke: #000;
      }

      .cls-2, .cls-3 {
        fill: none;
      }

      .cls-3 {
        stroke-width: 5px;
      }
    </style>
  </defs>
  <g id="g1869">
    <path id="_193492048" data-name=" 193492048" class="cls-2" d="m45.93,227.93l116.12-73.51"/>
    <path id="_193493872" data-name=" 193493872" class="cls-2" d="m340.57,123.15l3.25-33.2"/>
    <path id="_193493776" data-name=" 193493776" class="cls-2" d="m315.82,123.46l1.75-32.79"/>
    <path id="_193489288" data-name=" 193489288" class="cls-2" d="m235.41,122.86l.14-29.83"/>
    <path id="_193490032" data-name=" 193490032" class="cls-2" d="m210.54,123.51l4.11-29.82"/>
    <path id="_193485640" data-name=" 193485640" class="cls-3" d="m161.68,122.65v81.75h9.38c4.5-19.33,22.09-33.75,43.12-33.75s38.61,14.42,43.12,33.75h39.19c4.78-18.95,22.19-33,42.95-33s38.16,14.05,42.94,33h5.12v-81.75h-225.81Z"/>
    <path id="_193492888" data-name=" 193492888" class="cls-3" d="m170.53,2.79c-1.17,0-2.38.08-3.61.24-13.55,5.38-18.05,11.5-13.5,18.38,6.57,4.91,10.7,8.16,12.38,9.75-30.35-4.22-48.73-3.22-55.12,3-.03.13-.06.25-.09.38,6.96.11,12.56,4.09,12.56,8.99s-5.61,8.89-12.58,8.99c2.19,5.62,6.97,9.5,14.36,11.64,21.63,9.94,44.88,8.94,69.75-3-.84,6.78-2.09,14.03-3.75,21.75.99,4.5,4.18,7,9.56,7.5l-.19,4.12,150-4.12-.75-34.88c12.66-6.27,21.91-18.27,27.75-36,.77-9.54-2.11-10.54-8.62-3-5.56,13.1-13.44,21.85-23.62,26.25l-124.88,9c-4.9-7.54-11.65-9.54-20.25-6l.38-6.38c.38-3.64-.74-8.01-3.38-13.12-6.24-15.62-15.04-23.45-26.39-23.49h0Z"/>
    <path id="_193489240" data-name=" 193489240" class="cls-1" d="m177.8,46.81c0,2.49-1.76,4.5-3.94,4.5s-3.94-2.01-3.94-4.5,1.76-4.5,3.94-4.5,3.94,2.01,3.94,4.5h0Z"/>
    <path id="_193493560" data-name=" 193493560" class="cls-1" d="m191.3,52.06c0,2.49-1.76,4.5-3.94,4.5s-3.94-2.01-3.94-4.5,1.76-4.5,3.94-4.5,3.94,2.01,3.94,4.5Z"/>
    <path id="_193488832" data-name=" 193488832" class="cls-2" d="m200.3,39.4c-12.2-2.24-23.7-4.99-34.5-8.25"/>
    <path id="_193493440" data-name=" 193493440" class="cls-2" d="m199.93,45.78c.55,6.1-1.2,11.22-5.25,15.38"/>
    <path id="_193491472" data-name=" 193491472" class="cls-2" d="m220.18,51.78c6.65,11.12,8.96,19.46,6.94,25.03-4.9,8.65-13.77,13.18-26.62,13.59"/>
    <path id="_193493200" data-name=" 193493200" class="cls-2" d="m123.14,43.53c0,4.97-5.75,9-12.84,9s-12.84-4.03-12.84-9,5.75-9,12.84-9,12.84,4.03,12.84,9Z"/>
    <path id="_193481296" data-name=" 193481296" class="cls-2" d="m50.3,261.78c8.64-11.65,7.02-23.03-4.87-34.13-17.26-5.57-30.76-2.32-40.5,9.75-11.05,13.23,14.41,31.89,30.37,29.62,6.24-.88,11.24-.91,15-5.25h0Zm-27.85-19.08c-.53,5.49,1.09,9.62,4.88,12.38,10.11,5.28,18.9-5.08,14.06-14.06-7.09-8.03-17.7-6.01-18.94,1.69Z"/>
    <path id="_192536576" data-name=" 192536576" class="cls-2" d="m349.55,55.53c-.55-5.25-2.05-9.5-4.5-12.75"/>
    <path id="_193490272" data-name=" 193490272" class="cls-2" d="m383.68,214.9c0,24.02-19.81,43.5-44.25,43.5s-44.25-19.48-44.25-43.5,19.81-43.5,44.25-43.5,44.25,19.48,44.25,43.5Z"/>
    <path id="_193489456" data-name=" 193489456" class="cls-2" d="m352.93,215.65c0,7.87-6.38,14.25-14.25,14.25s-14.25-6.38-14.25-14.25,6.38-14.25,14.25-14.25,14.25,6.38,14.25,14.25Z"/>
    <path id="_193491280" data-name=" 193491280" class="cls-2" d="m258.43,214.15c0,24.02-19.81,43.5-44.25,43.5s-44.25-19.48-44.25-43.5,19.81-43.5,44.25-43.5,44.25,19.48,44.25,43.5Z"/>
    <path id="_193485832" data-name=" 193485832" class="cls-2" d="m229.93,217.9c0,9.11-6.38,16.5-14.25,16.5s-14.25-7.39-14.25-16.5,6.38-16.5,14.25-16.5,14.25,7.39,14.25,16.5Z"/>
  </g>
</svg>