<?xml version="1.0" encoding="UTF-8"?>
<svg id="svg2" xmlns="http://www.w3.org/2000/svg" width="355.67" height="529.44" viewBox="0 0 355.67 529.44">
  <defs>
    <style>
      .cls-1 {
        fill-rule: evenodd;
        stroke-miterlimit: 2.13;
      }

      .cls-1, .cls-2, .cls-3 {
        stroke: #000;
        stroke-width: 5px;
      }

      .cls-2, .cls-3 {
        fill: none;
        stroke-linejoin: round;
      }

      .cls-3 {
        stroke-linecap: round;
      }
    </style>
  </defs>
  <g id="g1293">
    <path id="_193716384" data-name=" 193716384" class="cls-3" d="m112.14,101.55L31.38,40.98,2.84,82.03"/>
    <path id="_193704936" data-name=" 193704936" class="cls-3" d="m252.12,86.71L305.94,2.84l46.78,21.66"/>
    <path id="_193716336" data-name=" 193716336" class="cls-3" d="m245.76,267.68l69.94,76.8,17.5,8.41"/>
    <path id="_193715712" data-name=" 193715712" class="cls-3" d="m115.83,288.82l-71.32,77.86-17.5,14.13"/>
    <path id="_193716240" data-name=" 193716240" class="cls-3" d="m162.53,432.82l.31-11.87"/>
    <path id="_193714272" data-name=" 193714272" class="cls-3" d="m175.51,433.24l-.34-11.47"/>
    <path id="_193705920" data-name=" 193705920" class="cls-3" d="m191.11,433.08l-2.03-12.38"/>
    <path id="_193716216" data-name=" 193716216" class="cls-3" d="m208.38,430.35l-3.14-13.16"/>
    <path id="_193716192" data-name=" 193716192" class="cls-3" d="m223.6,425l-4.39-13.16"/>
    <path id="_193716048" data-name=" 193716048" class="cls-2" d="m265.57,144.61l-.03.06,1.04-.06h-1.01Zm-.03.06l-175.61,10.71,42.39,74.36-31.96,32.64,20.86,35.66,5.66-.33c31.28-21.52,76.04-27.24,105.48-9.78l26.47-40.02-26.24-23.89,32.95-79.34Z"/>
    <path id="_193715856" data-name=" 193715856" class="cls-3" d="m300.9,372.07l14.8-27.59,25.91-15.14"/>
    <path id="_193704912" data-name=" 193704912" class="cls-3" d="m340.26,342.79l-24.56,1.68,2.69,22.88"/>
    <path id="_193714944" data-name=" 193714944" class="cls-3" d="m62.68,387.88l-18.17-21.2-21.2-10.43"/>
    <path id="_193712712" data-name=" 193712712" class="cls-3" d="m19.27,367.02l25.24-.34-.67,20.52"/>
    <path id="_193716120" data-name=" 193716120" class="cls-2" d="m259.17,322.61c28.23,114.76-159.97,138.54-166.89,23.89,14.98-72.31,144.18-99.13,166.89-23.89Z"/>
    <path id="_193715544" data-name=" 193715544" class="cls-1" d="m176.4,382.83c0,2.97-1.96,5.38-4.37,5.38s-4.37-2.41-4.37-5.38,1.96-5.38,4.37-5.38,4.37,2.41,4.37,5.38Z"/>
    <path id="_193715520" data-name=" 193715520" class="cls-1" d="m198.61,380.48c0,2.97-1.96,5.38-4.37,5.38s-4.37-2.41-4.37-5.38,1.96-5.38,4.37-5.38,4.37,2.41,4.37,5.38Z"/>
    <path id="_193707168" data-name=" 193707168" class="cls-3" d="m129.97,363.99c7.94-80.75,93.74-79.96,102.96-2.69"/>
    <path id="_193707912" data-name=" 193707912" class="cls-2" d="m132.32,229.74l30.67,51.4"/>
    <path id="_193715016" data-name=" 193715016" class="cls-2" d="m232.59,224.02l-26.96,54.32"/>
    <path id="_193715688" data-name=" 193715688" class="cls-2" d="m110.12,403.02l-16.15,20.53,22.57,1.46c.12-1.89.83-3.62,1.96-4.99l-8.38-16.99Zm42.06,19.52l-18.19,3.52c-.17,3.13-1.98,5.82-4.59,7.22l8.32,15.51,14.47-26.25Z"/>
    <path id="_193715736" data-name=" 193715736" class="cls-2" d="m260.22,373l-1.03,19.84c.67.37,1.28.8,1.83,1.3l23.05-10.97-23.85-10.17Zm-14.66,31.17l-20.72,8.61,25.25,14.47-.95-19.24c-1.56-.93-2.81-2.26-3.58-3.84Z"/>
    <path id="_193711272" data-name=" 193711272" class="cls-3" d="m144.09,508.48c-19.16-19.33-27.05-44.41-23.68-75.24m0,0c-15.63,33.25-14.69,64.27,2.82,93.07"/>
    <path id="_193715592" data-name=" 193715592" class="cls-3" d="m83.98,504.64c-1.19-40.77,9.78-65.54,33.66-74.58-18.5,21.33-25.59,50.88-20.53,88.37"/>
    <path id="_193715808" data-name=" 193715808" class="cls-3" d="m284.6,497.4c4.15-34.37-4.23-64.14-25.12-89.32"/>
    <path id="_193714968" data-name=" 193714968" class="cls-3" d="m340.41,450.63c-23.96-16.3-49.86-31.52-77.69-45.64m0,0c19.98,17.96,38.25,38.67,54.81,62.13"/>
    <path id="_193716552" data-name=" 193716552" class="cls-3" d="m347.47,426.07c-29.4.58-57.65-6.45-84.75-21.08"/>
    <path id="_193711296" data-name=" 193711296" class="cls-2" d="m100.02,115.34l24.23-27.59,68.64,30.96,26.24-39.7,46.1,10.77-31.63,56.19-101.27,6.84-31.3-36.78-1.01-.67Z"/>
    <path id="_192825200" data-name=" 192825200" class="cls-2" d="m134.01,425.57c0,4.83-3.92,8.75-8.75,8.75s-8.75-3.92-8.75-8.75,3.92-8.75,8.75-8.75,8.75,3.92,8.75,8.75h0Z"/>
    <path id="_193171656" data-name=" 193171656" class="cls-2" d="m263.88,400.5c0,4.92-4.29,8.92-9.59,8.92s-9.59-3.99-9.59-8.92,4.29-8.92,9.59-8.92,9.59,3.99,9.59,8.92Z"/>
    <path id="path1176" class="cls-2" d="m90.1,348.18c-5.3,0-9.59,3.54-9.59,7.91s4.29,7.91,9.59,7.91c1.68,0,3.25-.36,4.63-.98-1.11-4.58-1.89-9.44-2.3-14.59-.75-.15-1.52-.25-2.33-.25h0Z"/>
    <path id="path1181" class="cls-2" d="m263.88,323.45c-1.55,0-3.02.31-4.32.85,1.17,5.11,1.91,10.04,2.25,14.77.66.12,1.35.19,2.06.19,5.3,0,9.59-3.54,9.59-7.91s-4.29-7.91-9.59-7.91Z"/>
  </g>
</svg>